<?xml version="1.0" encoding="UTF-8" standalone="no"?>
<!DOCTYPE svg PUBLIC "-//W3C//DTD SVG 1.1//EN" "http://www.w3.org/Graphics/SVG/1.1/DTD/svg11.dtd">
<!-- Created with Vectornator (http://vectornator.io/) -->
<svg height="100%" stroke-miterlimit="10" style="fill-rule:nonzero;clip-rule:evenodd;stroke-linecap:round;stroke-linejoin:round;" version="1.1" viewBox="0 0 500 500" width="100%" xml:space="preserve" xmlns="http://www.w3.org/2000/svg" xmlns:vectornator="http://vectornator.io" xmlns:xlink="http://www.w3.org/1999/xlink">
<defs/>
<path d="M0 0L500 0L500 500L0 500L0 0Z" fill="#ffffff" fill-rule="nonzero" opacity="1" stroke="none" vectornator:artboardBackground="true"/>
<g id="Untitled" vectornator:layerName="Untitled">
<g opacity="1" vectornator:layerName="BACKGROUND">
<path d="M0 500L500 500L500 0L0 0L0 500Z" fill="#ffffff" fill-rule="nonzero" opacity="1" stroke="none" vectornator:layerName="path"/>
<g opacity="1" vectornator:layerName="path">
<clipPath clip-rule="nonzero" id="ClipPath">
<path d="M0 0L500 0L500 500L0 500L0 0Z"/>
</clipPath>
<g clip-path="url(#ClipPath)">
<g opacity="0.820007" vectornator:layerName="path">
<clipPath clip-rule="nonzero" id="ClipPath_2">
<path d="M54.8427 464.805L468.255 464.805L468.255 19.585L54.8427 19.585L54.8427 464.805Z"/>
</clipPath>
<g clip-path="url(#ClipPath_2)">
<path d="M156.196 445.515C146.688 436.318 142.936 423.945 130.518 419.387C89.8527 404.461 59.3717 364.941 55.2637 321.819C53.8257 306.719 55.7947 290.353 65.5207 278.712C71.8027 271.193 80.8957 266.157 86.1207 257.868C94.3237 244.854 90.7987 228.017 87.6367 212.962C78.7837 170.802 75.5347 124.715 95.6397 86.6153C118.671 42.9703 169.892 18.5213 219.229 19.6203C268.565 20.7193 315.408 44.3293 352.459 76.9253C389.511 109.521 417.886 150.714 444.029 192.569C454.368 209.121 464.639 226.435 467.451 245.747C470.325 265.493 465.103 285.541 458.057 304.21C453.72 315.703 448.546 327.13 440.363 336.291C430.338 347.512 416.579 354.513 403.804 362.463C370.945 382.913 339.086 427.332 318.946 460.383L250.792 463.7C182.637 467.017 174.688 463.401 156.196 445.515" fill="#fdeace" fill-rule="nonzero" opacity="1" stroke="none" vectornator:layerName="path"/>
</g>
</g>
</g>
</g>
<g opacity="1" vectornator:layerName="path">
<clipPath clip-rule="nonzero" id="ClipPath_3">
<path d="M0 0L500 0L500 500L0 500L0 0Z"/>
</clipPath>
<g clip-path="url(#ClipPath_3)">
<path d="M340.573 463.7C340.573 469.427 296.945 474.071 243.128 474.071C189.31 474.071 145.682 469.427 145.682 463.7C145.682 457.972 189.31 453.329 243.128 453.329C296.945 453.329 340.573 457.972 340.573 463.7" fill="#e9ebea" fill-rule="nonzero" opacity="1" stroke="none" vectornator:layerName="path"/>
<path d="M289.864 335.078C289.706 346.014 288.352 357.842 286.545 368.63C286.545 368.63 292.915 398.083 286.335 445.515L271.185 445.515L270.395 436.944C268.659 403.296 263.394 369.061 255.503 336.305L289.864 335.078Z" fill="#f7c5b4" fill-rule="nonzero" opacity="1" stroke="none" vectornator:layerName="path"/>
<path d="M199.076 335.983C199.234 346.919 200.211 357.842 202.018 368.63C202.018 368.63 195.649 398.084 202.228 445.515L217.378 445.515L218.169 436.944C219.905 403.296 224.767 369.811 232.658 337.056L199.076 335.983Z" fill="#f7c5b4" fill-rule="nonzero" opacity="1" stroke="none" vectornator:layerName="path"/>
<path d="M243.986 297.932C247.081 308.233 252.27 326.54 254.789 336.997C254.789 336.997 263.758 337.142 272.001 336.997C280.243 336.852 290.603 335.853 290.603 335.853C291.005 308.103 286.462 280.277 277.132 254.137L257.655 255.844C234.996 257.394 210.84 254.137 210.84 254.137C201.51 280.277 196.967 308.103 197.369 335.853C197.369 335.853 207.729 336.852 215.971 336.997C224.214 337.142 233.183 336.997 233.183 336.997C235.702 326.54 238.511 316.153 241.606 305.851L243.986 297.932Z" fill="#303467" fill-rule="nonzero" opacity="1" stroke="none" vectornator:layerName="path"/>
<path d="M286.335 445.515C291.389 448.56 297.903 452.271 302.314 456.19C303.45 457.199 304.663 458.497 304.443 460.001C304.211 461.597 302.485 462.502 300.914 462.867C298.448 463.439 295.882 463.33 293.354 463.218C287.268 462.949 281.055 462.653 275.379 460.439C274.139 459.955 272.888 459.348 272.06 458.306C270.794 456.712 270.786 454.491 270.837 452.456C270.895 450.14 270.953 447.823 271.012 445.506" fill="#003949" fill-rule="nonzero" opacity="1" stroke="none" vectornator:layerName="path"/>
<path d="M202.228 445.515C197.174 448.56 190.66 452.271 186.249 456.19C185.113 457.199 183.901 458.497 184.12 460.001C184.352 461.597 186.078 462.502 187.649 462.867C190.115 463.439 192.681 463.33 195.209 463.218C201.295 462.949 207.508 462.653 213.184 460.439C214.424 459.955 215.675 459.348 216.503 458.306C217.77 456.712 217.777 454.491 217.726 452.456C217.668 450.14 217.61 447.823 217.551 445.506" fill="#003949" fill-rule="nonzero" opacity="1" stroke="none" vectornator:layerName="path"/>
<path d="M303.96 461.426C303.96 461.426 303.45 461.538 302.52 461.684C301.598 461.822 300.272 461.989 298.675 462.038C297.078 462.094 295.216 462.054 293.232 461.954C291.251 461.853 289.136 461.743 287.021 461.564C284.907 461.375 282.795 461.1 280.833 460.729C278.866 460.37 277.067 459.868 275.542 459.364C274.778 459.105 274.088 458.803 273.511 458.461C272.936 458.135 272.458 457.727 272.148 457.36C271.828 456.998 271.618 456.685 271.478 456.471C271.345 456.252 271.274 456.135 271.274 456.135L271.269 456.128C271.197 456.01 271.234 455.855 271.353 455.782C271.472 455.71 271.627 455.747 271.699 455.866C271.701 455.869 271.704 455.873 271.705 455.877C271.705 455.877 271.954 456.334 272.559 456.984C272.861 457.311 273.259 457.628 273.816 457.922C274.361 458.215 275.017 458.478 275.758 458.717C277.251 459.185 279.039 459.618 280.973 459.968C282.908 460.326 284.997 460.574 287.093 460.765C289.189 460.971 291.296 461.11 293.272 461.239C295.245 461.366 297.084 461.43 298.658 461.397C300.232 461.368 301.54 461.283 302.451 461.173C303.354 461.065 303.881 460.972 303.881 460.972C304.006 460.949 304.126 461.033 304.148 461.158C304.17 461.28 304.091 461.397 303.971 461.423L303.96 461.426Z" fill="#1f6b82" fill-rule="nonzero" opacity="1" stroke="none" vectornator:layerName="path"/>
<path d="M184.683 460.972C184.683 460.972 185.2 461.064 186.084 461.169C186.975 461.279 188.257 461.361 189.798 461.395C191.339 461.43 193.14 461.372 195.072 461.251C197.007 461.128 199.071 460.99 201.125 460.797C203.179 460.616 205.226 460.382 207.125 460.054C209.022 459.719 210.779 459.334 212.253 458.894C212.99 458.676 213.648 458.45 214.206 458.202C214.758 457.954 215.228 457.677 215.552 457.422C215.88 457.155 216.11 456.896 216.261 456.719C216.408 456.536 216.486 456.439 216.486 456.439L216.494 456.429C216.581 456.321 216.74 456.303 216.848 456.39C216.953 456.475 216.972 456.629 216.892 456.737C216.892 456.737 216.812 456.844 216.662 457.046C216.506 457.243 216.272 457.53 215.91 457.85C215.171 458.479 213.959 459.088 212.453 459.546C210.958 460.017 209.185 460.474 207.259 460.817C205.333 461.157 203.265 461.418 201.195 461.597C199.122 461.762 197.053 461.871 195.111 461.967C193.167 462.06 191.343 462.094 189.78 462.036C188.215 461.982 186.917 461.818 186.014 461.68C185.104 461.536 184.604 461.426 184.604 461.426L184.593 461.424C184.469 461.396 184.39 461.274 184.417 461.149C184.444 461.028 184.562 460.951 184.683 460.972" fill="#1f6b82" fill-rule="nonzero" opacity="1" stroke="none" vectornator:layerName="path"/>
<path d="M233.177 332.058C233.177 332.058 232.637 332.114 231.691 332.211C230.748 332.303 229.386 332.443 227.756 332.537C226.126 332.641 224.22 332.724 222.177 332.759C220.134 332.78 217.954 332.756 215.775 332.687C211.419 332.507 207.075 332.091 203.841 331.613C202.221 331.397 200.882 331.146 199.944 330.981C199.007 330.809 198.471 330.711 198.471 330.711C198.289 330.678 198.168 330.503 198.201 330.321C198.234 330.143 198.404 330.024 198.581 330.049C198.581 330.049 200.727 330.356 203.955 330.71C205.567 330.906 207.455 331.057 209.475 331.237C211.497 331.402 213.657 331.524 215.818 331.615C217.979 331.706 220.142 331.752 222.171 331.753C224.199 331.744 226.094 331.738 227.716 331.674C230.957 331.584 233.129 331.445 233.129 331.445C233.299 331.434 233.445 331.563 233.456 331.732C233.466 331.897 233.34 332.041 233.177 332.058" fill="#003949" fill-rule="nonzero" opacity="1" stroke="none" vectornator:layerName="path"/>
<path d="M233.512 328.686C233.512 328.686 232.973 328.726 232.03 328.797C231.089 328.862 229.731 328.966 228.109 329.023C224.861 329.17 220.522 329.177 216.19 328.985C211.859 328.769 207.539 328.354 204.32 327.899C202.708 327.692 201.373 327.455 200.438 327.301C199.504 327.14 198.971 327.048 198.971 327.048C198.788 327.017 198.665 326.843 198.697 326.66C198.727 326.483 198.895 326.362 199.073 326.385C199.073 326.385 201.213 326.662 204.429 326.996C206.035 327.181 207.915 327.327 209.927 327.507C211.94 327.673 214.09 327.805 216.242 327.913C218.393 328.023 220.546 328.096 222.566 328.129C224.585 328.155 226.472 328.185 228.088 328.16C231.318 328.144 233.481 328.072 233.481 328.072C233.651 328.066 233.793 328.199 233.799 328.369C233.804 328.534 233.675 328.674 233.512 328.686" fill="#003949" fill-rule="nonzero" opacity="1" stroke="none" vectornator:layerName="path"/>
<path d="M289.372 331.994C289.372 331.994 288.836 332.079 287.897 332.229C286.961 332.373 285.608 332.589 283.986 332.773C282.364 332.967 280.466 333.156 278.428 333.304C276.389 333.438 274.212 333.535 272.032 333.587C267.672 333.649 263.312 333.474 260.057 333.176C258.427 333.05 257.076 332.874 256.13 332.761C255.185 332.642 254.645 332.574 254.645 332.574C254.461 332.55 254.331 332.382 254.354 332.198C254.377 332.019 254.54 331.891 254.718 331.906C254.718 331.906 256.878 332.094 260.121 332.269C261.741 332.375 263.634 332.421 265.661 332.489C267.689 332.541 269.852 332.543 272.015 332.514C274.178 332.485 276.341 332.411 278.366 332.299C280.391 332.179 282.282 332.068 283.898 331.914C287.13 331.644 289.29 331.385 289.29 331.385C289.459 331.364 289.612 331.485 289.632 331.653C289.652 331.818 289.534 331.968 289.372 331.994" fill="#003949" fill-rule="nonzero" opacity="1" stroke="none" vectornator:layerName="path"/>
<path d="M289.52 328.608C289.52 328.608 288.984 328.678 288.046 328.801C287.11 328.918 285.761 329.097 284.144 329.245C280.909 329.571 276.578 329.818 272.241 329.867C267.905 329.891 263.569 329.717 260.329 329.441C258.708 329.324 257.363 329.161 256.42 329.059C255.479 328.95 254.941 328.888 254.941 328.888C254.757 328.867 254.625 328.7 254.646 328.516C254.667 328.337 254.828 328.207 255.006 328.22C255.006 328.22 257.159 328.378 260.388 328.533C262.002 328.628 263.887 328.67 265.906 328.738C267.925 328.793 270.079 328.805 272.233 328.794C274.387 328.784 276.542 328.738 278.56 328.659C280.578 328.573 282.463 328.498 284.075 328.383C287.299 328.188 289.455 327.996 289.455 327.996C289.625 327.981 289.774 328.106 289.789 328.276C289.804 328.44 289.682 328.587 289.52 328.608" fill="#003949" fill-rule="nonzero" opacity="1" stroke="none" vectornator:layerName="path"/>
<path d="M267.615 255.35C267.615 255.35 267.702 255.726 267.856 256.385C267.922 256.721 268.037 257.107 268.178 257.543C268.306 257.982 268.469 258.473 268.676 259.005C268.858 259.544 269.107 260.107 269.379 260.698C269.633 261.297 269.992 261.886 270.311 262.517C270.679 263.123 271.037 263.763 271.478 264.364C271.883 264.989 272.375 265.565 272.838 266.161C273.346 266.72 273.82 267.311 274.362 267.821C274.873 268.363 275.438 268.83 275.967 269.302C276.53 269.73 277.048 270.183 277.589 270.543C278.12 270.917 278.628 271.264 279.125 271.541C279.608 271.841 280.066 272.087 280.479 272.294C280.887 272.513 281.247 272.695 281.556 272.817C282.164 273.087 282.512 273.241 282.512 273.241L282.535 273.251C282.704 273.326 282.78 273.524 282.705 273.694C282.634 273.854 282.45 273.931 282.287 273.874C282.287 273.874 281.917 273.743 281.269 273.515C280.941 273.408 280.557 273.243 280.12 273.044C279.677 272.858 279.186 272.629 278.675 272.332C278.147 272.062 277.605 271.722 277.036 271.352C276.457 270.999 275.899 270.547 275.311 270.099C274.753 269.613 274.158 269.13 273.618 268.571C273.049 268.04 272.538 267.437 272.012 266.848C271.536 266.218 271.033 265.608 270.619 264.949C270.168 264.315 269.804 263.642 269.43 263.004C269.097 262.344 268.764 261.71 268.52 261.077C268.262 260.45 268.027 259.855 267.859 259.288C267.661 258.733 267.531 258.203 267.428 257.729C267.312 257.258 267.223 256.85 267.18 256.518C267.073 255.85 267.012 255.468 267.012 255.468C266.985 255.301 267.099 255.143 267.267 255.116C267.427 255.09 267.578 255.194 267.615 255.35" fill="#003949" fill-rule="nonzero" opacity="1" stroke="none" vectornator:layerName="path"/>
<path d="M221.379 255.468C221.379 255.468 221.318 255.85 221.211 256.517C221.168 256.85 221.078 257.258 220.962 257.729C220.86 258.203 220.729 258.733 220.531 259.288C220.363 259.855 220.129 260.45 219.87 261.077C219.626 261.709 219.293 262.344 218.961 263.004C218.587 263.642 218.222 264.315 217.772 264.949C217.357 265.608 216.855 266.218 216.378 266.847C215.853 267.437 215.342 268.04 214.772 268.57C214.232 269.13 213.637 269.613 213.079 270.098C212.491 270.547 211.934 270.998 211.354 271.352C210.786 271.722 210.243 272.062 209.716 272.332C209.204 272.629 208.713 272.858 208.27 273.044C207.834 273.243 207.45 273.407 207.122 273.515C206.474 273.743 206.103 273.874 206.103 273.874C205.929 273.935 205.737 273.843 205.676 273.669C205.617 273.503 205.697 273.322 205.855 273.252L205.879 273.241C205.879 273.241 206.226 273.087 206.835 272.817C207.143 272.695 207.504 272.513 207.911 272.294C208.324 272.087 208.783 271.841 209.266 271.541C209.762 271.264 210.27 270.917 210.802 270.543C211.342 270.182 211.861 269.73 212.424 269.301C212.952 268.83 213.517 268.363 214.028 267.821C214.571 267.311 215.044 266.72 215.553 266.161C216.016 265.565 216.507 264.989 216.913 264.364C217.354 263.763 217.711 263.123 218.08 262.517C218.399 261.886 218.758 261.297 219.011 260.698C219.283 260.107 219.532 259.544 219.715 259.005C219.922 258.473 220.085 257.982 220.212 257.542C220.353 257.107 220.468 256.72 220.535 256.385C220.688 255.726 220.776 255.35 220.776 255.35C220.814 255.184 220.979 255.081 221.145 255.12C221.303 255.156 221.404 255.31 221.379 255.468" fill="#003949" fill-rule="nonzero" opacity="1" stroke="none" vectornator:layerName="path"/>
<path d="M330.289 188.271L319.339 188.271L319.339 146.808L330.289 146.808L330.289 188.271Z" fill="#3c3c3b" fill-rule="nonzero" opacity="1" stroke="none" vectornator:layerName="path"/>
<path d="M340.573 167.54C340.573 178.99 335.866 188.271 330.06 188.271C324.253 188.271 319.546 178.99 319.546 167.54C319.546 156.09 324.253 146.809 330.06 146.809C335.866 146.809 340.573 156.09 340.573 167.54" fill="#3c3c3b" fill-rule="nonzero" opacity="1" stroke="none" vectornator:layerName="path"/>
<path d="M330.06 167.54C330.06 178.99 325.353 188.271 319.547 188.271C313.74 188.271 309.033 178.99 309.033 167.54C309.033 156.09 313.74 146.809 319.547 146.809C325.353 146.809 330.06 156.09 330.06 167.54" fill="#2e2e2d" fill-rule="nonzero" opacity="1" stroke="none" vectornator:layerName="path"/>
<path d="M322.435 167.94C322.435 172.07 320.854 175.418 318.903 175.418C316.953 175.418 315.371 172.07 315.371 167.94C315.371 163.81 316.953 160.462 318.903 160.462C320.854 160.462 322.435 163.81 322.435 167.94" fill="#949a90" fill-rule="nonzero" opacity="1" stroke="none" vectornator:layerName="path"/>
<path d="M206.956 188.579C206.956 188.579 204.172 197.495 203.124 199.707L201.234 197.381C198.083 193.76 189.07 188.157 185.2 185.318C196.966 156.014 203.933 157.223 210.409 155.951C213.818 155.281 217.806 154.592 221.256 154.061C243.045 150.711 275.846 155.878 275.846 155.878C282.322 157.151 289.29 155.941 301.055 185.245C297.185 188.085 288.173 193.688 285.022 197.309L283.132 199.635C282.084 197.422 279.299 188.507 279.299 188.507L279.253 190.658C278.798 211.463 278.39 230.117 277.936 250.922C277.907 252.25 277.726 253.835 276.544 254.44C276.544 254.44 266.16 256.428 241.617 256.428C241.617 256.428 211.074 256.264 209.941 253.628C209.627 252.898 209.461 252.124 209.425 251.329C209.21 246.582 208.995 241.835 208.78 237.087C208.5 230.898 208.22 224.708 207.94 218.519C207.42 207.024 206.956 188.579 206.956 188.579" fill="#fbc040" fill-rule="nonzero" opacity="1" stroke="none" vectornator:layerName="path"/>
<path d="M298.91 186.443C299.92 188.116 300.549 189.109 301.368 190.884L301.26 190.658C303.769 182.071 306.374 174.524 306.374 174.524C306.804 170.349 305.757 168.704 304.387 165.604C304.055 164.855 304.095 163.939 304.41 163.182C304.725 162.426 305.509 161.889 306.328 161.869C307.034 161.851 307.728 162.183 308.427 162.08C309.369 161.942 310.233 161.036 311.124 161.371C311.422 161.483 311.666 161.726 311.977 161.792C312.8 161.967 313.421 160.861 314.262 160.882C314.892 160.898 315.404 161.552 316.029 161.471C316.295 161.437 316.523 161.272 316.773 161.175C317.451 160.911 318.249 161.18 318.782 161.675C319.315 162.17 319.63 162.854 319.883 163.536C320.53 165.282 320.854 167.197 320.46 169.016C319.866 171.756 317.72 174.698 317.858 177.498C318.371 187.97 315.314 207.435 312.412 217.51C311.594 220.35 310.545 223.302 308.285 225.207C306.537 226.68 304.149 227.366 301.886 227.046C299.467 226.704 297.302 225.277 295.649 223.477C293.996 221.678 292.796 219.515 291.671 217.346C288.812 211.838 286.326 204.262 284.071 198.48C284.071 198.48 286.591 193.529 291.999 190.658C297.408 187.787 298.91 186.443 298.91 186.443" fill="#f7c5b4" fill-rule="nonzero" opacity="1" stroke="none" vectornator:layerName="path"/>
<path d="M301.26 190.658C301.26 190.658 301.213 190.989 301.107 191.562C300.989 192.131 300.856 192.953 300.647 193.925C300.245 195.873 299.643 198.448 299.032 201.016C298.411 203.581 297.793 206.142 297.365 208.074C297.155 209.041 296.971 209.848 296.871 210.419C296.776 210.99 296.706 211.319 296.706 211.319C296.706 211.319 296.68 210.987 296.662 210.401C296.67 209.819 296.66 208.979 296.754 207.981C296.914 205.983 297.365 203.35 297.984 200.765C298.307 199.475 298.639 198.188 299.003 196.997C299.355 195.803 299.72 194.699 300.054 193.759C300.727 191.881 301.26 190.658 301.26 190.658" fill="#da806c" fill-rule="nonzero" opacity="1" stroke="none" vectornator:layerName="path"/>
<path d="M253.493 133.21C253.946 136.825 254.399 140.44 254.852 144.055C255.018 145.382 255.21 147.643 255.833 148.826C256.831 150.719 265.097 153.812 266.718 154.717C266.718 154.717 260.237 160.36 243.546 161.021C226.855 161.682 221.256 154.062 221.256 154.062C222.877 153.157 231.144 150.064 232.141 148.17C232.764 146.988 232.957 144.726 233.123 143.4C233.576 139.785 234.029 136.17 234.482 132.554" fill="#f7c5b4" fill-rule="nonzero" opacity="1" stroke="none" vectornator:layerName="path"/>
<path d="M261.462 98.6281C262.797 105.859 260.897 120.41 259.346 126.16C258.715 128.498 258.037 130.914 256.532 132.81C249.095 142.177 239.183 139.217 235.924 137.075C233.367 135.394 231.331 133.086 230.153 130.263C227.145 123.058 225.911 115.119 226.589 107.341C226.589 107.341 225.724 87.0431 246.485 87.0431C246.485 87.0431 259.232 86.5531 261.462 98.6281" fill="#f7c5b4" fill-rule="nonzero" opacity="1" stroke="none" vectornator:layerName="path"/>
<path d="M226.97 116.909C226.524 117.554 225.491 117.535 224.877 117.047C224.262 116.559 223.988 115.761 223.838 114.991C223.692 114.238 223.634 113.467 223.668 112.7C223.692 112.151 223.777 111.568 224.136 111.15C224.493 110.734 225.104 110.556 225.628 110.716C226.153 110.876 226.561 111.365 226.625 111.909L226.97 116.909Z" fill="#f7c5b4" fill-rule="nonzero" opacity="1" stroke="none" vectornator:layerName="path"/>
<path d="M261.461 111.034C261.632 110.513 261.933 110.001 262.458 109.841C262.983 109.681 263.594 109.859 263.951 110.275C264.309 110.693 264.395 111.275 264.419 111.825C264.452 112.592 264.395 113.362 264.248 114.116C264.098 114.886 263.824 115.684 263.21 116.172C262.596 116.66 261.563 116.679 261.116 116.034C261.116 116.034 260.663 113.473 261.461 111.034" fill="#f7c5b4" fill-rule="nonzero" opacity="1" stroke="none" vectornator:layerName="path"/>
<path d="M232.684 95.205C233.499 97.906 233.341 100.853 232.479 103.54C231.618 106.227 230.079 108.665 228.211 110.78C227.693 111.365 226.894 111.976 226.212 111.596C225.874 111.407 225.697 111.028 225.555 110.668C223.846 106.318 224.363 101.159 226.9 97.235C226.872 93.958 227.801 90.388 230.041 87.997C232.281 85.604 235.46 84.117 238.732 83.93C239.948 83.861 241.186 83.962 242.37 83.675C243.603 83.377 244.692 82.679 245.813 82.086C247.583 81.15 249.499 80.453 251.489 80.229C254.4 79.902 257.428 80.631 259.842 82.291C262.256 83.951 264.029 86.535 264.659 89.396C265.017 91.018 265.016 92.702 264.843 94.354C264.665 96.062 264.292 97.787 263.404 99.257C262.303 101.077 260.451 102.39 258.412 102.996C256.082 103.689 253.496 103.479 251.309 102.418C249.772 101.672 248.403 100.518 246.734 100.155C245.783 99.948 244.797 100.015 243.823 100.004C240.632 99.968 237.455 99.064 234.724 97.415C233.866 96.897 232.991 96.222 232.759 95.247" fill="#3c3c3b" fill-rule="nonzero" opacity="1" stroke="none" vectornator:layerName="path"/>
<g opacity="1" vectornator:layerName="path">
<clipPath clip-rule="nonzero" id="ClipPath_4">
<path d="M234.048 142.474L253.798 142.474L253.798 135.642L234.048 135.642L234.048 142.474Z"/>
</clipPath>
<g clip-path="url(#ClipPath_4)">
<path d="M253.798 135.642C253.798 135.642 250.896 138.755 244.758 139.253C238.62 139.751 234.679 136.232 234.048 135.642C234.048 135.642 235.311 142.409 244.161 142.473C252.699 142.535 253.798 135.642 253.798 135.642" fill="#f7c5b4" fill-rule="nonzero" opacity="1" stroke="none" vectornator:layerName="path"/>
</g>
</g>
<path d="M230.627 112.109C230.627 112.109 231.176 111.911 232.058 111.722C232.932 111.529 234.127 111.409 235.322 111.443C236.518 111.491 237.702 111.693 238.56 111.947C239.421 112.195 239.965 112.437 239.965 112.437L239.972 112.44C240.076 112.486 240.122 112.608 240.076 112.712C240.034 112.807 239.927 112.854 239.83 112.825C239.83 112.825 237.598 112.165 235.298 112.1C234.152 112.048 233.003 112.129 232.147 112.244C231.297 112.35 230.718 112.475 230.718 112.475C230.616 112.497 230.516 112.432 230.494 112.33C230.474 112.237 230.527 112.145 230.614 112.114L230.627 112.109Z" fill="#3c3c3b" fill-rule="nonzero" opacity="1" stroke="none" vectornator:layerName="path"/>
<path d="M236.931 113.544C236.931 114.457 236.191 115.196 235.279 115.196C234.366 115.196 233.626 114.457 233.626 113.544C233.626 112.631 234.366 111.892 235.279 111.892C236.191 111.892 236.931 112.631 236.931 113.544" fill="#3c3c3b" fill-rule="nonzero" opacity="1" stroke="none" vectornator:layerName="path"/>
<path d="M257.001 112.282C257.001 112.282 256.418 112.178 255.564 112.102C254.704 112.019 253.552 111.979 252.408 112.072C250.111 112.219 247.904 112.959 247.904 112.959C247.796 112.995 247.679 112.937 247.643 112.829C247.61 112.73 247.656 112.624 247.748 112.579L247.754 112.576C247.754 112.576 248.29 112.314 249.141 112.036C249.99 111.751 251.167 111.507 252.361 111.416C253.555 111.339 254.753 111.416 255.634 111.578C256.523 111.735 257.079 111.913 257.079 111.913L257.092 111.917C257.191 111.949 257.245 112.055 257.213 112.154C257.184 112.245 257.092 112.298 257.001 112.282" fill="#3c3c3b" fill-rule="nonzero" opacity="1" stroke="none" vectornator:layerName="path"/>
<path d="M250.791 113.517C250.791 114.43 251.531 115.169 252.443 115.169C253.356 115.169 254.096 114.43 254.096 113.517C254.096 112.604 253.356 111.865 252.443 111.865C251.531 111.865 250.791 112.604 250.791 113.517" fill="#3c3c3b" fill-rule="nonzero" opacity="1" stroke="none" vectornator:layerName="path"/>
<path d="M241.03 110.178C241.331 109.141 241.219 107.983 240.671 107.052C240.508 107.384 240.024 107.505 239.724 107.288C239.598 107.197 239.502 107.059 239.355 107.009C239.236 106.97 239.107 106.996 238.983 107.009C238.433 107.068 237.895 106.867 237.359 106.733C235.016 106.145 232.384 106.903 230.711 108.646C231.291 109.086 232.103 108.904 232.827 108.839C235.65 108.588 237.875 110.507 240.704 110.338C240.704 110.338 240.987 110.325 241.03 110.178" fill="#3c3c3b" fill-rule="nonzero" opacity="1" stroke="none" vectornator:layerName="path"/>
<path d="M247.322 110.057C247.046 109.013 247.185 107.858 247.755 106.94C247.91 107.276 248.391 107.408 248.696 107.199C248.824 107.111 248.924 106.975 249.072 106.929C249.192 106.892 249.32 106.921 249.444 106.938C249.992 107.009 250.535 106.822 251.073 106.7C253.43 106.168 256.044 106.988 257.674 108.771C257.085 109.197 256.276 108.995 255.554 108.913C252.738 108.595 250.468 110.461 247.644 110.225C247.644 110.225 247.361 110.205 247.322 110.057" fill="#3c3c3b" fill-rule="nonzero" opacity="1" stroke="none" vectornator:layerName="path"/>
<path d="M244.536 126.765C244.536 126.765 244.443 126.8 244.259 126.853C244.071 126.905 243.809 126.972 243.481 126.998C242.828 127.058 241.936 126.95 241.132 126.537C240.756 126.343 240.381 126.065 240.09 125.784C239.79 125.499 239.566 125.182 239.393 124.905C239.221 124.625 239.123 124.368 239.058 124.189C238.993 124.01 238.965 123.906 238.965 123.906L238.963 123.899C238.939 123.809 238.991 123.717 239.081 123.693C239.164 123.67 239.251 123.715 239.282 123.794C239.282 123.794 239.428 124.173 239.774 124.656C239.944 124.9 240.176 125.157 240.444 125.408C240.72 125.662 241.025 125.877 241.389 126.066C242.067 126.432 242.874 126.566 243.463 126.566C243.759 126.564 244.013 126.546 244.18 126.518C244.352 126.492 244.458 126.468 244.458 126.468C244.54 126.448 244.623 126.5 244.642 126.582C244.66 126.658 244.618 126.734 244.547 126.761L244.536 126.765Z" fill="#da806c" fill-rule="nonzero" opacity="1" stroke="none" vectornator:layerName="path"/>
<path d="M259.71 100.763C259.254 103.956 259.842 107.289 261.363 110.133C261.541 110.466 261.782 110.828 262.156 110.882C262.475 110.927 262.786 110.717 262.958 110.444C263.129 110.172 263.19 109.846 263.247 109.529C263.835 106.262 264.399 102.767 263.068 99.7255C262.97 99.5015 262.857 99.2745 262.669 99.1165C262.452 98.9355 262.16 98.8675 261.877 98.8615C260.71 98.8375 259.64 99.9225 259.679 101.089" fill="#3c3c3b" fill-rule="nonzero" opacity="1" stroke="none" vectornator:layerName="path"/>
<path d="M243.006 113.594C243.006 113.594 242.92 114.21 242.791 115.134C242.676 116.056 242.547 117.287 242.512 118.522C242.486 119.138 242.472 119.756 242.484 120.335C242.49 120.637 242.492 120.851 242.569 121.019C242.627 121.155 242.774 121.304 242.931 121.392C243.248 121.573 243.617 121.615 243.875 121.63C244.143 121.642 244.296 121.65 244.296 121.65C244.435 121.656 244.543 121.775 244.536 121.914C244.53 122.036 244.439 122.134 244.323 122.152L244.316 122.153C244.316 122.153 244.162 122.177 243.875 122.196C243.594 122.2 243.142 122.249 242.613 121.996C242.357 121.866 242.09 121.677 241.903 121.329C241.732 121.01 241.717 120.637 241.71 120.357C241.689 119.761 241.682 119.124 241.707 118.489C241.769 117.217 241.945 115.955 242.153 115.025C242.354 114.092 242.556 113.493 242.556 113.493L242.558 113.488C242.599 113.367 242.73 113.302 242.851 113.343C242.958 113.379 243.021 113.486 243.006 113.594" fill="#da806c" fill-rule="nonzero" opacity="1" stroke="none" vectornator:layerName="path"/>
<path d="M298.237 188.671L287.287 188.671L287.287 147.208L298.237 147.208L298.237 188.671Z" fill="#3c3c3b" fill-rule="nonzero" opacity="1" stroke="none" vectornator:layerName="path"/>
<path d="M308.521 167.94C308.521 179.39 303.814 188.671 298.008 188.671C292.201 188.671 287.494 179.39 287.494 167.94C287.494 156.49 292.201 147.209 298.008 147.209C303.814 147.209 308.521 156.49 308.521 167.94" fill="#3c3c3b" fill-rule="nonzero" opacity="1" stroke="none" vectornator:layerName="path"/>
<path d="M298.007 167.94C298.007 179.39 293.3 188.671 287.494 188.671C281.687 188.671 276.98 179.39 276.98 167.94C276.98 156.49 281.687 147.209 287.494 147.209C293.3 147.209 298.007 156.49 298.007 167.94" fill="#2e2e2d" fill-rule="nonzero" opacity="1" stroke="none" vectornator:layerName="path"/>
<path d="M290.383 168.34C290.383 172.47 288.802 175.818 286.851 175.818C284.901 175.818 283.319 172.47 283.319 168.34C283.319 164.21 284.901 160.862 286.851 160.862C288.802 160.862 290.383 164.21 290.383 168.34" fill="#949a90" fill-rule="nonzero" opacity="1" stroke="none" vectornator:layerName="path"/>
<path d="M155.966 188.343L166.916 188.343L166.916 146.88L155.966 146.88L155.966 188.343Z" fill="#3c3c3b" fill-rule="nonzero" opacity="1" stroke="none" vectornator:layerName="path"/>
<path d="M145.682 167.612C145.682 179.062 150.389 188.343 156.195 188.343C162.002 188.343 166.709 179.062 166.709 167.612C166.709 156.162 162.002 146.881 156.195 146.881C150.389 146.881 145.682 156.162 145.682 167.612" fill="#3c3c3b" fill-rule="nonzero" opacity="1" stroke="none" vectornator:layerName="path"/>
<path d="M156.196 167.612C156.196 179.062 160.903 188.343 166.709 188.343C172.516 188.343 177.223 179.062 177.223 167.612C177.223 156.162 172.516 146.881 166.709 146.881C160.903 146.881 156.196 156.162 156.196 167.612" fill="#2e2e2d" fill-rule="nonzero" opacity="1" stroke="none" vectornator:layerName="path"/>
<path d="M163.82 168.012C163.82 172.142 165.401 175.49 167.352 175.49C169.302 175.49 170.884 172.142 170.884 168.012C170.884 163.882 169.302 160.534 167.352 160.534C165.401 160.534 163.82 163.882 163.82 168.012" fill="#949a90" fill-rule="nonzero" opacity="1" stroke="none" vectornator:layerName="path"/>
<path d="M187.346 186.516C186.336 188.189 185.707 189.182 184.888 190.957L184.996 190.731C182.487 182.144 179.882 174.597 179.882 174.597C179.452 170.422 180.499 168.776 181.869 165.677C182.201 164.928 182.161 164.012 181.846 163.255C181.531 162.499 180.747 161.962 179.928 161.942C179.222 161.924 178.528 162.256 177.829 162.153C176.887 162.015 176.023 161.109 175.132 161.444C174.834 161.556 174.59 161.799 174.279 161.865C173.456 162.04 172.835 160.934 171.994 160.955C171.364 160.971 170.852 161.625 170.227 161.544C169.961 161.51 169.733 161.345 169.483 161.248C168.805 160.984 168.007 161.253 167.474 161.748C166.941 162.243 166.626 162.927 166.373 163.609C165.726 165.355 165.402 167.27 165.796 169.089C166.39 171.829 168.536 174.771 168.398 177.571C167.885 188.043 170.942 207.508 173.844 217.583C174.662 220.423 175.711 223.375 177.971 225.28C179.719 226.753 182.107 227.439 184.37 227.119C186.789 226.777 188.954 225.35 190.607 223.55C192.26 221.751 193.46 219.588 194.585 217.419C197.444 211.911 199.93 204.335 202.185 198.553C202.185 198.553 199.665 193.602 194.257 190.731C188.848 187.86 187.346 186.516 187.346 186.516" fill="#f7c5b4" fill-rule="nonzero" opacity="1" stroke="none" vectornator:layerName="path"/>
<path d="M184.995 190.73C184.995 190.73 185.528 191.953 186.201 193.831C186.535 194.771 186.9 195.875 187.252 197.069C187.616 198.26 187.948 199.547 188.271 200.837C188.89 203.422 189.341 206.055 189.501 208.053C189.595 209.051 189.585 209.891 189.593 210.473C189.575 211.059 189.549 211.391 189.549 211.391C189.549 211.391 189.479 211.062 189.384 210.491C189.284 209.92 189.1 209.113 188.89 208.146C188.462 206.214 187.844 203.653 187.223 201.088C186.612 198.52 186.01 195.945 185.608 193.997C185.399 193.025 185.266 192.203 185.148 191.634C185.042 191.061 184.995 190.73 184.995 190.73" fill="#da806c" fill-rule="nonzero" opacity="1" stroke="none" vectornator:layerName="path"/>
<path d="M188.018 188.743L198.968 188.743L198.968 147.28L188.018 147.28L188.018 188.743Z" fill="#3c3c3b" fill-rule="nonzero" opacity="1" stroke="none" vectornator:layerName="path"/>
<path d="M177.734 168.012C177.734 179.462 182.441 188.743 188.247 188.743C194.054 188.743 198.761 179.462 198.761 168.012C198.761 156.562 194.054 147.281 188.247 147.281C182.441 147.281 177.734 156.562 177.734 168.012" fill="#3c3c3b" fill-rule="nonzero" opacity="1" stroke="none" vectornator:layerName="path"/>
<path d="M188.248 168.012C188.248 179.462 192.955 188.743 198.761 188.743C204.568 188.743 209.275 179.462 209.275 168.012C209.275 156.562 204.568 147.281 198.761 147.281C192.955 147.281 188.248 156.562 188.248 168.012" fill="#2e2e2d" fill-rule="nonzero" opacity="1" stroke="none" vectornator:layerName="path"/>
<path d="M195.872 168.412C195.872 172.542 197.453 175.89 199.404 175.89C201.354 175.89 202.936 172.542 202.936 168.412C202.936 164.282 201.354 160.934 199.404 160.934C197.453 160.934 195.872 164.282 195.872 168.412" fill="#949a90" fill-rule="nonzero" opacity="1" stroke="none" vectornator:layerName="path"/>
<g opacity="0.479996" vectornator:layerName="path">
<clipPath clip-rule="nonzero" id="ClipPath_5">
<path d="M210.839 258.827L276.544 258.827L276.544 254.136L210.839 254.136L210.839 258.827Z"/>
</clipPath>
<g clip-path="url(#ClipPath_5)">
<path d="M276.544 254.44C276.544 254.44 256.099 256.875 243.127 256.428C230.155 255.982 214.841 255.972 210.839 254.136C210.839 254.136 239.806 264.483 276.544 254.44" fill="#1c6075" fill-rule="nonzero" opacity="1" stroke="none" vectornator:layerName="path"/>
</g>
</g>
<path d="M159.725 476.644L148.719 476.644L148.719 434.967L159.725 434.967L159.725 476.644Z" fill="#3c3c3b" fill-rule="nonzero" opacity="1" stroke="none" vectornator:layerName="path"/>
<path d="M170.062 455.805C170.062 467.314 165.331 476.643 159.494 476.643C153.658 476.643 148.927 467.314 148.927 455.805C148.927 444.296 153.658 434.967 159.494 434.967C165.331 434.967 170.062 444.296 170.062 455.805" fill="#3c3c3b" fill-rule="nonzero" opacity="1" stroke="none" vectornator:layerName="path"/>
<path d="M159.494 455.805C159.494 467.314 154.763 476.643 148.926 476.643C143.09 476.643 138.359 467.314 138.359 455.805C138.359 444.296 143.09 434.967 148.926 434.967C154.763 434.967 159.494 444.296 159.494 455.805" fill="#2e2e2d" fill-rule="nonzero" opacity="1" stroke="none" vectornator:layerName="path"/>
<path d="M151.83 456.207C151.83 460.358 150.241 463.723 148.28 463.723C146.319 463.723 144.73 460.358 144.73 456.207C144.73 452.056 146.319 448.691 148.28 448.691C150.241 448.691 151.83 452.056 151.83 456.207" fill="#949a90" fill-rule="nonzero" opacity="1" stroke="none" vectornator:layerName="path"/>
<path d="M149.272 461.385L117.1 461.385L117.1 451.03L149.272 451.03L149.272 461.385Z" fill="#949a90" fill-rule="nonzero" opacity="1" stroke="none" vectornator:layerName="path"/>
<path d="M127.508 477.046L116.502 477.046L116.502 435.369L127.508 435.369L127.508 477.046Z" fill="#3c3c3b" fill-rule="nonzero" opacity="1" stroke="none" vectornator:layerName="path"/>
<path d="M137.844 456.207C137.844 467.716 133.113 477.045 127.276 477.045C121.44 477.045 116.709 467.716 116.709 456.207C116.709 444.698 121.44 435.369 127.276 435.369C133.113 435.369 137.844 444.698 137.844 456.207" fill="#3c3c3b" fill-rule="nonzero" opacity="1" stroke="none" vectornator:layerName="path"/>
<path d="M127.277 456.207C127.277 467.716 122.546 477.045 116.709 477.045C110.873 477.045 106.142 467.716 106.142 456.207C106.142 444.698 110.873 435.369 116.709 435.369C122.546 435.369 127.277 444.698 127.277 456.207" fill="#2e2e2d" fill-rule="nonzero" opacity="1" stroke="none" vectornator:layerName="path"/>
<path d="M119.613 456.61C119.613 460.761 118.024 464.127 116.063 464.127C114.102 464.127 112.513 460.761 112.513 456.61C112.513 452.459 114.102 449.094 116.063 449.094C118.024 449.094 119.613 452.459 119.613 456.61" fill="#949a90" fill-rule="nonzero" opacity="1" stroke="none" vectornator:layerName="path"/>
</g>
</g>
</g>
</g>
</svg>
