<?xml version="1.0" encoding="UTF-8" standalone="no"?>
<!DOCTYPE svg PUBLIC "-//W3C//DTD SVG 1.1//EN" "http://www.w3.org/Graphics/SVG/1.1/DTD/svg11.dtd">
<!-- Created with Vectornator (http://vectornator.io/) -->
<svg height="100%" stroke-miterlimit="10" style="fill-rule:nonzero;clip-rule:evenodd;stroke-linecap:round;stroke-linejoin:round;" version="1.1" viewBox="0 0 500 500" width="100%" xml:space="preserve" xmlns="http://www.w3.org/2000/svg" xmlns:vectornator="http://vectornator.io" xmlns:xlink="http://www.w3.org/1999/xlink">
<defs>
<path d="M234.181 275.408L274.027 274.878L273.696 258.006L223.477 250.564C223.477 250.564 224.524 260.004 234.181 275.408" id="Fill"/>
</defs>
<path d="M0 0L500 0L500 500L0 500L0 0Z" fill="#ffffff" fill-rule="nonzero" opacity="1" stroke="none" vectornator:artboardBackground="true"/>
<g id="Layer-1" vectornator:layerName="Layer 1">
<g opacity="0.820007" vectornator:layerName="path">
<clipPath clip-rule="nonzero" id="ClipPath">
<path d="M54.8427 464.805L468.255 464.805L468.255 19.585L54.8427 19.585L54.8427 464.805Z"/>
</clipPath>
<g clip-path="url(#ClipPath)">
<path d="M156.196 445.515C146.688 436.318 142.936 423.945 130.518 419.387C89.8527 404.461 59.3717 364.941 55.2637 321.819C53.8257 306.719 55.7947 290.353 65.5207 278.712C71.8027 271.193 80.8957 266.157 86.1207 257.868C94.3237 244.854 90.7987 228.017 87.6367 212.962C78.7837 170.802 75.5347 124.715 95.6397 86.6153C118.671 42.9703 169.892 18.5213 219.229 19.6203C268.565 20.7193 315.408 44.3293 352.459 76.9253C389.511 109.521 417.886 150.714 444.029 192.569C454.368 209.121 464.639 226.435 467.451 245.747C470.325 265.493 465.103 285.541 458.057 304.21C453.72 315.703 448.546 327.13 440.363 336.291C430.338 347.512 416.579 354.513 403.804 362.463C370.945 382.913 339.086 427.332 318.946 460.383L250.792 463.7C182.637 467.017 174.688 463.401 156.196 445.515" fill="#fdeace" fill-rule="nonzero" opacity="1" stroke="none" vectornator:layerName="path"/>
</g>
</g>
</g>
<g id="Untitled" vectornator:layerName="Untitled">
<g opacity="1" vectornator:layerName="BACKGROUND">
<path d="M38.1977 443.389L461.802 443.389L461.802 21.0568L38.1977 21.0568L38.1977 443.389Z" fill="#e2ebd5" fill-rule="nonzero" opacity="0" stroke="none" vectornator:layerName="path"/>
<g opacity="1" vectornator:layerName="Group 1">
<path d="M388.115 407.949C388.115 420.335 326.279 430.376 250 430.376C173.721 430.376 111.886 420.335 111.886 407.949C111.886 395.562 173.721 385.521 250 385.521C326.279 385.521 388.115 395.562 388.115 407.949Z" fill="none" opacity="1" stroke="#0d3042" stroke-linecap="butt" stroke-linejoin="miter" stroke-width="2.361" vectornator:layerName="path"/>
<path d="M220.125 430.376L220.125 477.223" fill="none" opacity="1" stroke="#153f59" stroke-linecap="butt" stroke-linejoin="miter" stroke-width="3.541" vectornator:layerName="path 2"/>
<path d="M148.592 458.947L145.05 458.947L145.05 412.1L148.592 412.1L148.592 458.947Z" fill="#0f3649" fill-rule="nonzero" opacity="1" stroke="none" vectornator:layerName="path 3"/>
<path d="M300.693 458.947L297.151 458.947L297.151 412.1L300.693 412.1L300.693 458.947Z" fill="#0f3649" fill-rule="nonzero" opacity="1" stroke="none" vectornator:layerName="path 4"/>
<path d="M354.95 418.571L354.95 465.418" fill="none" opacity="1" stroke="#153f59" stroke-linecap="butt" stroke-linejoin="miter" stroke-width="3.541" vectornator:layerName="path 5"/>
<path d="M388.115 407.133C388.115 419.519 326.279 429.56 250 429.56C173.721 429.56 111.886 419.519 111.886 407.133C111.886 394.746 173.721 384.705 250 384.705C326.279 384.705 388.115 394.746 388.115 407.133" fill="#153f59" fill-rule="nonzero" opacity="1" stroke="none" vectornator:layerName="path 7"/>
<path d="M367.549 407.132C367.549 416.168 314.922 422.314 250.001 422.314C185.079 422.314 132.451 416.168 132.451 407.132C132.451 398.096 185.079 391.951 250.001 391.951C314.922 391.951 367.549 398.096 367.549 407.132" fill="#117bd3" fill-rule="nonzero" opacity="1" stroke="none" vectornator:layerName="path 6"/>
<g opacity="0.660004" vectornator:layerName="path 1">
<clipPath clip-rule="nonzero" id="ClipPath_2">
<path d="M208.549 412.1L291.45 412.1L291.45 402.166L208.549 402.166L208.549 412.1Z"/>
</clipPath>
<g clip-path="url(#ClipPath_2)">
<path d="M291.451 407.132C291.451 409.875 272.893 412.099 250 412.099C227.108 412.099 208.55 409.875 208.55 407.132C208.55 404.39 227.108 402.165 250 402.165C272.893 402.165 291.451 404.39 291.451 407.132" fill="#117bd3" fill-rule="nonzero" opacity="1" stroke="none" vectornator:layerName="path"/>
</g>
</g>
</g>
<g opacity="1" vectornator:layerName="path">
<clipPath clip-rule="nonzero" id="ClipPath_3">
<path d="M38.1977 21.0568L461.802 21.0568L461.802 444.661L38.1977 444.661L38.1977 21.0568Z"/>
</clipPath>
<g clip-path="url(#ClipPath_3)">
<path d="M330.296 185.317C328.376 185.723 328.087 190.044 328.47 190.715C329.929 193.265 330.906 194.805 331.557 197.307C332.132 199.511 331.221 198.855 331.458 199.88C331.51 200.094 332.361 200.219 333.331 199.444C334.626 198.403 333.759 196.659 333.842 196.757C335.927 199.157 342.956 207.732 344.116 207.186C344.729 206.899 336.607 197.45 336.726 197.541C337.701 198.284 343.185 203.015 345.138 204.866C347.032 206.658 347.467 206.634 347.752 206.701C348.035 206.768 347.44 205.891 346.841 205.271C344.91 203.28 339.162 196.82 338.402 196.146C338.246 196.01 345.221 201.368 347.95 203.059C349.782 204.194 351.338 204.702 348.608 202.271C346.664 200.543 344.45 199.013 342.304 197.379C341.344 196.648 339.773 195.153 338.815 194.422C338.396 194.103 347.574 200.58 348.195 199.953C348.621 199.521 343.009 195.439 341.23 193.861C339.485 192.318 331.371 185.091 330.296 185.317" fill="#974735" fill-rule="evenodd" opacity="1" stroke="none" vectornator:layerName="path"/>
<path d="M161.808 167.485C163.611 169.069 162.884 174.686 162.348 175.321C160.305 177.726 158.978 179.127 157.746 181.923C156.66 184.386 157.715 184.066 157.24 185.227C157.138 185.47 156.268 185.152 155.49 183.634C154.453 181.596 155.72 179.878 155.615 179.955C152.99 181.824 144.024 188.733 143.005 187.397C142.467 186.692 152.719 179.289 152.58 179.338C151.44 179.731 144.906 182.649 142.539 183.898C140.245 185.104 139.821 184.831 139.522 184.756C139.227 184.684 140.021 183.909 140.76 183.46C143.138 182.022 150.34 177.068 151.248 176.641C151.435 176.556 143.279 179.434 140.182 180.049C138.104 180.46 136.446 180.234 139.716 178.686C142.045 177.588 144.595 176.889 147.101 176.022C148.222 175.636 150.126 174.623 151.245 174.234C151.736 174.065 141.136 177.128 140.67 175.99C140.349 175.206 146.858 173.179 148.988 172.18C151.077 171.204 160.798 166.601 161.808 167.485" fill="#974735" fill-rule="evenodd" opacity="1" stroke="none" vectornator:layerName="path"/>
<path d="M254.85 140.008C254.85 140.008 260.78 142.618 265.288 144.611C267.646 145.653 271.877 145.113 276.226 151.935C284.01 164.143 293.904 187.242 293.904 187.242C293.904 187.242 320.522 186.074 329.98 185.182C331.187 185.069 332.986 187.63 334.026 189.187C335.918 192.018 288.033 208.257 282.641 203.907C274.886 197.652 252.906 147.685 254.85 140.008" fill="#974735" fill-rule="evenodd" opacity="1" stroke="none" vectornator:layerName="path"/>
<path d="M259.032 200.446C259.032 200.446 260.837 206.695 266.929 227.732C273.5 250.422 275.242 295.129 272.007 301.661C267.798 310.166 224.942 343.089 217.171 366.884C214.799 374.145 209.773 392.561 219.231 395.452C219.231 395.452 209.936 397.563 208.424 379.718C205.337 378.025 201.064 374.203 200.974 370.11C200.818 362.946 207.793 365.494 208.815 362.393C224.684 314.221 223.415 306.562 248.217 295.265C248.217 295.265 197.499 235.715 234.012 210.16C242.231 204.409 259.032 200.446 259.032 200.446" fill="#974735" fill-rule="evenodd" opacity="1" stroke="none" vectornator:layerName="path"/>
<path d="M246.777 138.004C246.777 138.004 237.846 132.487 228.213 138.271C221.663 142.204 208.171 174.423 207 178.937C206.775 179.808 165.755 162.249 159.432 168.23C155.008 172.414 188.771 194.231 213.287 196.137C219.975 188.693 226.193 180.38 232.681 169.011C240.546 155.225 243.406 142.377 246.777 138.004" fill="#974735" fill-rule="evenodd" opacity="1" stroke="none" vectornator:layerName="path"/>
<path d="M243.99 118.391C243.99 118.391 243.435 134.886 237.271 139.281C232.188 142.909 255.894 152.736 258.939 148.756C258.939 148.756 259.115 143.707 258.84 141.169C258.496 137.962 256.863 129.503 256.863 129.503C256.863 129.503 257.837 122.697 243.99 118.391" fill="#974735" fill-rule="evenodd" opacity="1" stroke="none" vectornator:layerName="path"/>
<path d="M239.983 127.777C239.983 127.777 249.187 141.19 258.636 140.011L257.634 128.982L239.983 127.777Z" fill="#0f0705" fill-rule="evenodd" opacity="1" stroke="none" vectornator:layerName="path"/>
<path d="M265.384 179.794C264.986 181.663 272.342 222.775 258.963 225.278C258.763 226.243 232.473 235.21 208.965 212.182C203.251 197.248 220.762 193.548 224.125 185.885C222.525 181.557 226.665 151.305 225.386 147.797C222.768 140.619 232.66 138.875 240.156 135.765C240.156 135.765 245.306 147.054 253.782 145.486C255.981 145.08 257.909 140.081 258.839 141.169C259.972 142.49 265.192 156.465 267.429 161.525C272.32 172.578 265.666 178.477 265.384 179.794" fill="#974735" fill-rule="evenodd" opacity="1" stroke="none" vectornator:layerName="path"/>
</g>
</g>
<g opacity="1" vectornator:layerName="path">
<clipPath clip-rule="nonzero" id="ClipPath_4">
<path d="M225.386 147.798C226.665 151.305 222.525 181.556 224.125 185.885C220.763 193.549 203.251 197.248 208.965 212.182C232.473 235.21 258.763 226.243 258.963 225.277C272.342 222.775 264.986 181.663 265.384 179.794C265.667 178.478 272.32 172.579 267.429 161.524C265.193 156.465 259.972 142.491 258.84 141.169C257.909 140.081 255.981 145.08 253.782 145.486C245.306 147.054 240.156 135.766 240.156 135.766C232.66 138.875 222.769 140.619 225.386 147.798"/>
</clipPath>
<g clip-path="url(#ClipPath_4)">
<path d="M219.456 182.934C219.377 183.367 219.221 183.038 219.367 183.45C219.425 183.608 219.619 183.667 219.749 183.772C220.608 184.456 221.504 185.041 222.431 185.547C223.389 186.068 224.379 186.495 225.395 186.829C226.751 187.276 228.155 187.579 229.589 187.734C231.653 187.957 233.748 187.857 235.931 187.667C236.094 187.669 236.224 187.541 236.224 187.382C236.224 187.222 236.099 187.093 235.936 187.091C233.585 186.846 231.401 186.358 229.238 185.81C227.94 185.48 226.662 185.117 225.395 184.692C224.143 184.271 222.902 183.811 221.656 183.251C221.106 183.002 220.614 182.457 219.99 182.494C219.556 182.52 219.922 182.543 219.556 182.781C219.514 182.754 219.456 182.765 219.43 182.808C219.404 182.849 219.415 182.906 219.456 182.934" fill="#000000" fill-rule="evenodd" opacity="1" stroke="none" vectornator:layerName="path"/>
<path d="M256.867 163.679C257.585 163.412 257.009 164.066 257.464 163.456C257.517 163.383 257.48 163.278 257.48 163.187C257.48 161.856 257.28 160.535 257.093 159.221C256.805 157.189 256.464 155.161 255.988 153.164C255.668 151.828 255.239 150.541 254.883 149.214C254.857 149.05 254.699 148.94 254.537 148.967C254.369 148.994 254.259 149.148 254.291 149.311C254.369 150.639 254.407 151.95 254.563 153.269C254.93 156.296 255.412 159.297 255.861 162.314C255.925 162.745 255.799 163.285 256.108 163.593C256.669 164.15 255.909 163.556 256.689 163.694C256.695 163.744 256.737 163.782 256.789 163.777C256.836 163.773 256.873 163.729 256.867 163.679" fill="#000000" fill-rule="evenodd" opacity="1" stroke="none" vectornator:layerName="path"/>
</g>
</g>
<g opacity="1" vectornator:layerName="path">
<clipPath clip-rule="nonzero" id="ClipPath_5">
<path d="M38.1977 21.0568L461.802 21.0568L461.802 444.661L38.1977 444.661L38.1977 21.0568Z"/>
</clipPath>
<g clip-path="url(#ClipPath_5)">
<path d="M212.86 196.135C212.86 196.135 221.651 201.059 241.731 207.032C261.345 212.867 301.467 229.106 316.364 241.62C325.489 249.284 361.342 259.167 382.939 264.136C386.711 265.005 394.944 249.799 399.65 241.531C399.65 241.531 404.367 254.265 397.076 262.586C395.122 265.59 397.699 275.833 392.941 277.645C389.546 278.936 382.773 272.807 381.875 272.901C340.89 277.185 319.661 279.364 305.43 259.502C305.43 259.502 278.482 263.988 249.31 258.795C233.135 255.916 210.976 249.733 202.907 241.562C194.873 233.424 197.219 220.994 200.972 213.233C205.037 204.826 212.86 196.135 212.86 196.135" fill="#974735" fill-rule="evenodd" opacity="1" stroke="none" vectornator:layerName="path"/>
<path d="M259.707 104.489C259.707 104.489 265.217 117.418 274.024 122.648C274.024 122.648 273.319 124.677 271.375 126.379L266.052 120.484L270.504 127.488L264.491 131.1L261.969 125.066L263.449 132.303L257.234 133.712C257.234 133.712 247.897 113.256 259.707 104.489" fill="#000000" fill-rule="evenodd" opacity="1" stroke="none" vectornator:layerName="path"/>
<path d="M245.076 132.958C240.924 131.718 239.367 130.479 237.315 127.413C227.837 113.242 231.139 104.298 235.773 101.523C253.232 91.0672 258.491 106.485 258.491 106.485C258.491 106.485 261.877 128.095 259.956 131.414C258.238 134.388 252.821 135.271 245.076 132.958" fill="#974735" fill-rule="evenodd" opacity="1" stroke="none" vectornator:layerName="path"/>
<path d="M219.397 370.262C219.397 370.262 216.769 374.334 216.806 379.638C216.824 382.428 217.039 390.129 220.185 393.637C222.296 395.99 220.144 400.324 219.334 400.709C218.524 401.095 210.056 397.496 205.174 387.773C205.174 387.773 205.121 385.864 203.511 383.393C201.899 380.921 195.554 375.352 195.246 370.153C195.246 370.153 200.218 363.822 205.524 362.14C205.524 362.14 206.672 358.715 208.475 360.554C210.366 362.484 213.028 367.89 213.784 371.743C213.784 371.743 215.105 368.672 217.307 368.233C219.512 367.8 219.448 369.059 219.397 370.262" fill="#000000" fill-rule="evenodd" opacity="1" stroke="none" vectornator:layerName="path"/>
</g>
</g>
<g opacity="1" vectornator:layerName="path">
<clipPath clip-rule="nonzero" id="ClipPath_6">
<path d="M205.523 362.141C200.219 363.822 195.246 370.154 195.246 370.154C195.554 375.351 201.9 380.921 203.51 383.392C205.121 385.863 205.174 387.773 205.174 387.773C210.056 397.496 218.524 401.095 219.334 400.709C220.143 400.324 222.296 395.99 220.185 393.637C217.038 390.129 216.825 382.428 216.806 379.638C216.77 374.334 219.398 370.261 219.398 370.261C219.448 369.058 219.511 367.799 217.307 368.233C215.105 368.672 213.783 371.742 213.783 371.742C213.029 367.89 210.366 362.484 208.475 360.555C208.094 360.165 207.741 360.012 207.423 360.012C206.237 360.012 205.523 362.141 205.523 362.141"/>
</clipPath>
<g clip-path="url(#ClipPath_6)">
<path d="M214.847 367.483C214.569 368.133 214.29 368.776 214.065 369.437C213.142 372.168 212.687 374.985 212.552 377.703C212.369 381.354 212.901 384.873 214.306 388.011C214.905 389.347 215.548 390.899 216.681 391.9C217.401 392.535 218.319 392.954 219.542 392.95C219.612 392.95 219.667 392.89 219.668 392.823C219.668 392.755 219.609 392.694 219.54 392.694C218.395 392.693 217.539 392.299 216.866 391.692C215.772 390.711 215.166 389.186 214.595 387.882C213.246 384.787 212.77 381.316 212.97 377.729C213.118 375.041 213.721 372.312 214.473 369.563C214.659 368.895 214.819 368.218 215.02 367.548C215.038 367.501 215.011 367.446 214.965 367.431C214.918 367.415 214.865 367.438 214.847 367.483" fill="#ffffff" fill-rule="evenodd" opacity="1" stroke="none" vectornator:layerName="path"/>
<path d="M220.78 399.376C220.382 399.385 220.029 399.295 219.699 399.156C219.166 398.934 218.691 398.589 218.2 398.331C217.284 397.816 216.425 397.241 215.591 396.636C214.322 395.715 213.135 394.716 212.057 393.616C210.955 392.511 210.005 391.352 209.159 390.12C208.311 388.883 207.568 387.574 206.893 386.179C206.304 384.967 205.874 383.688 205.319 382.466C205.078 381.935 204.814 381.414 204.502 380.911C204.111 380.28 203.691 379.676 203.245 379.083C201.489 376.744 199.412 374.633 197.838 372.163C197.361 371.422 196.979 370.643 196.632 369.848C196.113 368.655 195.682 367.416 195.244 366.156C195.234 366.129 195.209 366.119 195.183 366.124C195.159 366.134 195.146 366.162 195.152 366.184C195.461 367.258 195.745 368.319 196.113 369.344C196.49 370.39 196.951 371.392 197.539 372.347C199.093 374.844 201.145 376.993 202.887 379.347C203.321 379.936 203.735 380.531 204.115 381.149C204.413 381.634 204.668 382.142 204.9 382.658C205.45 383.883 205.879 385.17 206.463 386.385C207.149 387.808 207.898 389.139 208.758 390.394C209.621 391.655 210.592 392.834 211.714 393.958C212.64 394.879 213.624 395.759 214.703 396.527C215.764 397.281 216.91 397.923 218.115 398.497C218.609 398.754 219.089 399.101 219.629 399.326C219.983 399.475 220.36 399.57 220.783 399.557C220.834 399.556 220.874 399.514 220.871 399.463C220.869 399.41 220.827 399.371 220.78 399.376" fill="#ffffff" fill-rule="evenodd" opacity="1" stroke="none" vectornator:layerName="path"/>
<path d="M205.504 361.053C205.487 362.105 205.68 363.094 205.998 364.037C206.484 365.482 207.274 366.813 208.087 368.053C208.632 368.788 209.286 369.456 209.796 370.221C210.013 370.545 210.204 370.881 210.343 371.251C210.348 371.269 210.365 371.277 210.381 371.273C210.397 371.269 210.405 371.25 210.399 371.233C210.268 370.703 210.046 370.225 209.769 369.767C209.361 369.093 208.847 368.485 208.427 367.821C207.723 366.83 207.023 365.782 206.51 364.64C206.015 363.534 205.694 362.342 205.688 361.056C205.686 361.003 205.646 360.963 205.596 360.964C205.546 360.964 205.505 361.004 205.504 361.053" fill="#ffffff" fill-rule="evenodd" opacity="1" stroke="none" vectornator:layerName="path"/>
<path d="M210.497 374.834C210.146 377.059 209.955 379.121 210.12 381.123C210.233 382.51 210.53 383.868 211.002 385.24C211.017 385.284 211.062 385.307 211.105 385.292C211.147 385.276 211.173 385.232 211.158 385.187C210.623 383.48 210.4 381.796 210.355 380.064C210.31 378.4 210.427 376.692 210.68 374.864C210.687 374.813 210.65 374.763 210.601 374.756C210.551 374.749 210.506 374.786 210.497 374.834" fill="#ffffff" fill-rule="evenodd" opacity="1" stroke="none" vectornator:layerName="path"/>
<path d="M212.16 388.237L212.573 388.914C212.602 388.961 212.66 388.976 212.702 388.947C212.748 388.922 212.763 388.865 212.737 388.821L212.307 388.13C212.278 388.089 212.221 388.08 212.18 388.11C212.138 388.138 212.131 388.196 212.16 388.237" fill="#ffffff" fill-rule="evenodd" opacity="1" stroke="none" vectornator:layerName="path"/>
<path d="M213.548 390.975L214.01 391.329C214.05 391.355 214.105 391.346 214.133 391.306C214.161 391.266 214.147 391.207 214.107 391.18L213.665 390.835C213.629 390.806 213.572 390.811 213.538 390.847C213.504 390.885 213.509 390.941 213.548 390.975" fill="#ffffff" fill-rule="evenodd" opacity="1" stroke="none" vectornator:layerName="path"/>
<path d="M212.008 373.828C212.149 373.867 212.243 373.923 212.383 373.936C212.562 373.955 212.736 373.912 212.909 373.9C214.132 373.814 215.287 373.923 216.396 374.144C217.392 374.34 218.348 374.592 219.245 374.951C219.34 374.995 219.451 374.953 219.497 374.86C219.54 374.763 219.501 374.655 219.404 374.606C218.306 374.013 217.112 373.479 215.803 373.24C214.691 373.034 213.453 372.826 212.304 373.261C212.159 373.313 212.074 373.398 211.946 373.485C211.851 373.502 211.788 373.593 211.807 373.689C211.824 373.784 211.913 373.845 212.008 373.828" fill="#ffffff" fill-rule="evenodd" opacity="1" stroke="none" vectornator:layerName="path"/>
<path d="M211.614 377.845C211.636 377.837 211.665 377.858 211.678 377.977C211.632 377.995 211.605 378.047 211.62 378.092C211.637 378.141 211.687 378.166 211.737 378.152C211.881 378.399 211.616 378.243 211.759 378.293L211.838 378.326C211.948 378.374 212.076 378.286 212.197 378.263C213.373 378.027 214.612 377.984 215.821 378.11C216.656 378.193 217.465 378.357 218.223 378.527C218.797 378.654 219.338 378.751 219.824 378.912C219.926 378.957 220.049 378.913 220.095 378.808C220.144 378.706 220.099 378.582 219.997 378.537C219.537 378.257 219.028 377.969 218.445 377.755C217.67 377.474 216.796 377.308 215.903 377.229C214.602 377.113 213.239 377.193 212.02 377.621C211.896 377.667 211.723 377.662 211.656 377.776L211.614 377.845Z" fill="#ffffff" fill-rule="evenodd" opacity="1" stroke="none" vectornator:layerName="path"/>
<path d="M211.523 382.135C211.658 382.4 211.385 382.216 211.64 382.366C211.833 382.477 212.082 382.361 212.306 382.344C213.622 382.227 214.928 382.07 216.203 382.043C217.085 382.02 217.942 381.994 218.777 382.113C218.955 382.153 219.126 382.037 219.163 381.863C219.2 381.689 219.086 381.517 218.908 381.477C217.719 381.174 216.447 381.024 215.139 381.081C214.153 381.128 213.145 381.256 212.166 381.5C211.942 381.552 211.663 381.526 211.521 381.705C211.334 381.934 211.523 381.662 211.49 381.956C211.442 381.968 211.407 382.011 211.418 382.066C211.426 382.114 211.475 382.148 211.523 382.135" fill="#ffffff" fill-rule="evenodd" opacity="1" stroke="none" vectornator:layerName="path"/>
<path d="M212.019 385.376C212.108 385.443 212.097 385.484 212.206 385.518C212.416 385.583 212.643 385.503 212.86 385.483C214.099 385.385 215.297 385.256 216.478 385.178C217.072 385.135 217.659 385.099 218.249 385.08C218.842 385.053 219.425 385.012 220.031 385.065C220.175 385.095 220.315 384.999 220.346 384.857C220.373 384.709 220.28 384.57 220.135 384.541C219.588 384.362 219.051 384.214 218.49 384.147C217.662 384.044 216.819 384.066 215.977 384.169C214.781 384.311 213.578 384.586 212.357 384.922C212.264 384.951 212.158 384.95 212.084 385.013C211.998 385.086 212.043 385.095 211.989 385.194C211.939 385.2 211.907 385.25 211.914 385.299C211.921 385.348 211.969 385.383 212.019 385.376" fill="#ffffff" fill-rule="evenodd" opacity="1" stroke="none" vectornator:layerName="path"/>
<path d="M213.929 388.905C214.204 388.921 214.378 388.997 214.649 388.974C214.93 388.95 215.195 388.85 215.468 388.778C216.108 388.61 216.752 388.455 217.392 388.307C218.365 388.087 219.313 387.852 220.234 387.635C220.363 387.619 220.45 387.5 220.435 387.374C220.416 387.247 220.299 387.158 220.173 387.176C219.422 387.196 218.659 387.17 217.876 387.233C217.107 387.3 216.331 387.431 215.58 387.648C215.191 387.765 214.776 387.853 214.442 388.089C214.179 388.276 214.055 388.488 213.851 388.743C213.804 388.761 213.787 388.82 213.805 388.861C213.827 388.907 213.885 388.929 213.929 388.905" fill="#ffffff" fill-rule="evenodd" opacity="1" stroke="none" vectornator:layerName="path"/>
<path d="M215.36 391.635C215.757 391.532 216.141 391.465 216.533 391.346C217.106 391.177 217.66 390.974 218.216 390.763C218.582 390.621 218.947 390.472 219.301 390.305C219.842 390.056 220.355 389.773 220.897 389.524C221.042 389.472 221.119 389.312 221.068 389.164C221.016 389.017 220.858 388.942 220.709 388.991C220.121 389.136 219.538 389.265 218.964 389.461C218.587 389.59 218.216 389.743 217.855 389.916C217.31 390.167 216.782 390.446 216.27 390.763C215.922 390.981 215.619 391.228 215.281 391.465C215.237 391.489 215.218 391.543 215.239 391.589C215.26 391.636 215.313 391.653 215.36 391.635" fill="#ffffff" fill-rule="evenodd" opacity="1" stroke="none" vectornator:layerName="path"/>
</g>
</g>
<g opacity="1" vectornator:layerName="path">
<clipPath clip-rule="nonzero" id="ClipPath_7">
<path d="M38.1977 21.0568L461.802 21.0568L461.802 444.661L38.1977 444.661L38.1977 21.0568Z"/>
</clipPath>
<g clip-path="url(#ClipPath_7)">
<path d="M379.035 259.528C379.035 259.528 383.835 258.861 387.83 255.372C389.931 253.537 395.626 248.347 396.23 243.673C396.634 240.54 401.323 239.341 402.143 239.703C402.963 240.064 405.765 248.829 401.585 258.875C401.585 258.875 400.174 260.16 399.352 262.994C398.532 265.828 398.455 274.269 394.717 277.896C394.717 277.896 386.676 278.261 381.938 275.34C381.938 275.34 378.593 276.706 378.81 274.139C379.037 271.447 381.395 265.902 383.821 262.815C383.821 262.815 380.632 263.818 378.863 262.437C377.095 261.049 378.09 260.275 379.035 259.528" fill="#000000" fill-rule="evenodd" opacity="1" stroke="none" vectornator:layerName="path"/>
</g>
</g>
<g opacity="1" vectornator:layerName="path">
<clipPath clip-rule="nonzero" id="ClipPath_8">
<path d="M396.229 243.673C395.625 248.348 389.931 253.536 387.83 255.371C383.835 258.862 379.034 259.528 379.034 259.528C378.09 260.275 377.095 261.049 378.863 262.436C380.631 263.819 383.821 262.815 383.821 262.815C381.395 265.902 379.038 271.448 378.811 274.139C378.594 276.706 381.938 275.34 381.938 275.34C386.675 278.26 394.718 277.896 394.718 277.896C398.455 274.27 398.532 265.827 399.352 262.994C400.174 260.16 401.585 258.874 401.585 258.874C405.765 248.828 402.964 240.065 402.144 239.703C402.049 239.661 401.905 239.64 401.722 239.64C400.306 239.641 396.588 240.898 396.229 243.673"/>
</clipPath>
<g clip-path="url(#ClipPath_8)">
<path d="M379.9 264.789C380.574 264.576 381.244 264.367 381.891 264.106C384.562 263.024 386.993 261.529 389.141 259.857C392.026 257.612 394.345 254.912 395.805 251.799C396.426 250.475 397.182 248.975 397.201 247.463C397.212 246.502 396.931 245.533 396.128 244.61C396.084 244.558 396.003 244.554 395.951 244.598C395.899 244.642 395.89 244.726 395.936 244.778C396.682 245.646 396.943 246.552 396.923 247.458C396.893 248.927 396.134 250.381 395.518 251.665C394.054 254.708 391.736 257.333 388.886 259.524C386.755 261.167 384.293 262.49 381.719 263.715C381.092 264.01 380.475 264.331 379.836 264.616C379.79 264.632 379.765 264.69 379.783 264.735C379.801 264.78 379.854 264.806 379.9 264.789" fill="#ffffff" fill-rule="evenodd" opacity="1" stroke="none" vectornator:layerName="path"/>
<path d="M400.19 239.477C400.455 239.773 400.618 240.098 400.728 240.44C400.909 240.989 400.956 241.574 401.081 242.114C401.289 243.145 401.414 244.17 401.501 245.197C401.63 246.76 401.649 248.311 401.519 249.845C401.403 251.401 401.143 252.878 400.763 254.323C400.379 255.772 399.872 257.19 399.255 258.612C398.723 259.849 398.033 261.01 397.47 262.228C397.225 262.757 397.002 263.297 396.825 263.861C396.603 264.57 396.419 265.282 396.261 266.007C395.636 268.864 395.391 271.817 394.548 274.62C394.297 275.466 393.957 276.264 393.58 277.047C393.016 278.217 392.359 279.352 391.691 280.507C391.677 280.532 391.685 280.557 391.705 280.574C391.728 280.585 391.758 280.577 391.771 280.557C392.383 279.624 393.002 278.715 393.538 277.768C394.084 276.799 394.543 275.796 394.882 274.727C395.76 271.92 396.048 268.963 396.696 266.107C396.857 265.393 397.038 264.692 397.258 264C397.431 263.458 397.649 262.933 397.888 262.42C398.459 261.205 399.153 260.039 399.693 258.804C400.322 257.356 400.843 255.919 401.231 254.448C401.623 252.971 401.884 251.465 402.002 249.882C402.096 248.58 402.12 247.26 401.997 245.94C401.876 244.645 401.615 243.358 401.263 242.07C401.134 241.528 401.085 240.939 400.903 240.382C400.785 240.016 400.61 239.67 400.324 239.357C400.29 239.319 400.233 239.316 400.195 239.352C400.157 239.388 400.155 239.445 400.19 239.477" fill="#ffffff" fill-rule="evenodd" opacity="1" stroke="none" vectornator:layerName="path"/>
<path d="M381.127 276.065C381.935 275.391 382.558 274.599 383.066 273.742C383.842 272.431 384.336 270.964 384.745 269.539C384.946 268.646 385.025 267.716 385.272 266.83C385.376 266.453 385.505 266.089 385.695 265.741C385.704 265.727 385.699 265.708 385.686 265.7C385.672 265.689 385.654 265.696 385.644 265.711C385.328 266.158 385.111 266.637 384.946 267.147C384.702 267.894 384.576 268.68 384.347 269.433C384.056 270.612 383.719 271.827 383.188 272.961C382.673 274.059 381.979 275.08 381.009 275.924C380.97 275.959 380.966 276.016 380.999 276.053C381.032 276.091 381.09 276.095 381.127 276.065" fill="#ffffff" fill-rule="evenodd" opacity="1" stroke="none" vectornator:layerName="path"/>
<path d="M388.309 263.287C390.223 262.101 391.909 260.899 393.319 259.467C394.296 258.475 395.131 257.365 395.862 256.112C395.886 256.072 395.874 256.023 395.834 256C395.795 255.979 395.745 255.989 395.721 256.029C394.776 257.548 393.646 258.817 392.362 259.981C391.132 261.102 389.762 262.128 388.212 263.128C388.169 263.158 388.154 263.217 388.182 263.26C388.209 263.301 388.266 263.31 388.309 263.287" fill="#ffffff" fill-rule="evenodd" opacity="1" stroke="none" vectornator:layerName="path"/>
<path d="M397.376 253.278L397.62 252.523C397.637 252.471 397.61 252.417 397.561 252.405C397.512 252.385 397.459 252.412 397.443 252.459L397.199 253.237C397.187 253.286 397.218 253.334 397.267 253.347C397.315 253.36 397.365 253.327 397.376 253.278" fill="#ffffff" fill-rule="evenodd" opacity="1" stroke="none" vectornator:layerName="path"/>
<path d="M398.545 250.44L398.512 249.858C398.506 249.812 398.462 249.777 398.414 249.781C398.366 249.786 398.33 249.834 398.336 249.882L398.362 250.443C398.364 250.49 398.406 250.529 398.456 250.53C398.506 250.532 398.545 250.491 398.545 250.44" fill="#ffffff" fill-rule="evenodd" opacity="1" stroke="none" vectornator:layerName="path"/>
<path d="M386.56 262.799C386.498 262.667 386.479 262.559 386.397 262.444C386.295 262.295 386.148 262.193 386.026 262.069C385.163 261.198 384.492 260.253 383.934 259.268C383.434 258.385 383 257.497 382.687 256.583C382.659 256.483 382.553 256.427 382.453 256.451C382.352 256.483 382.295 256.582 382.322 256.688C382.589 257.907 382.965 259.16 383.638 260.309C384.207 261.285 384.858 262.357 385.938 262.945C386.071 263.021 386.191 263.029 386.34 263.069C386.416 263.13 386.525 263.119 386.586 263.043C386.648 262.966 386.635 262.859 386.56 262.799" fill="#ffffff" fill-rule="evenodd" opacity="1" stroke="none" vectornator:layerName="path"/>
<path d="M389.861 260.475C389.84 260.463 389.838 260.428 389.918 260.341C389.962 260.364 390.019 260.35 390.044 260.31C390.07 260.265 390.056 260.21 390.013 260.181C390.105 259.911 390.16 260.214 390.105 260.072L390.079 259.991C390.044 259.877 389.892 259.837 389.796 259.759C388.85 259.023 388.009 258.113 387.315 257.115C386.833 256.428 386.43 255.709 386.064 255.023C385.784 254.504 385.505 254.033 385.309 253.56C385.278 253.453 385.164 253.388 385.054 253.422C384.944 253.45 384.881 253.566 384.913 253.673C385.002 254.204 385.115 254.776 385.333 255.36C385.626 256.13 386.071 256.9 386.595 257.628C387.356 258.689 388.306 259.67 389.425 260.314C389.541 260.379 389.651 260.512 389.78 260.489L389.861 260.475Z" fill="#ffffff" fill-rule="evenodd" opacity="1" stroke="none" vectornator:layerName="path"/>
<path d="M393.17 257.743C393.283 257.468 393.322 257.796 393.267 257.505C393.226 257.286 392.976 257.173 392.817 257.016C391.87 256.094 390.898 255.207 390.046 254.26C389.453 253.605 388.874 252.972 388.418 252.263C388.333 252.102 388.133 252.049 387.977 252.134C387.822 252.219 387.765 252.418 387.85 252.579C388.398 253.677 389.114 254.738 390.011 255.692C390.689 256.409 391.445 257.089 392.269 257.671C392.454 257.807 392.618 258.036 392.845 258.026C393.141 258.019 392.812 258.052 393.056 257.887C393.096 257.915 393.152 257.912 393.186 257.869C393.217 257.832 393.211 257.771 393.17 257.743" fill="#ffffff" fill-rule="evenodd" opacity="1" stroke="none" vectornator:layerName="path"/>
<path d="M395.301 255.253C395.294 255.141 395.332 255.123 395.287 255.019C395.199 254.816 394.99 254.697 394.834 254.546C393.95 253.671 393.071 252.849 392.24 252.004C391.821 251.581 391.409 251.16 391.011 250.726C390.604 250.294 390.193 249.879 389.837 249.386C389.765 249.257 389.601 249.214 389.472 249.284C389.344 249.359 389.298 249.52 389.371 249.65C389.592 250.182 389.832 250.682 390.146 251.153C390.609 251.847 391.176 252.472 391.804 253.043C392.693 253.856 393.686 254.587 394.737 255.294C394.819 255.344 394.888 255.426 394.985 255.44C395.096 255.458 395.073 255.417 395.183 255.395C395.221 255.428 395.279 255.42 395.312 255.383C395.344 255.345 395.34 255.286 395.301 255.253" fill="#ffffff" fill-rule="evenodd" opacity="1" stroke="none" vectornator:layerName="path"/>
<path d="M396.729 251.502C396.561 251.284 396.505 251.102 396.311 250.912C396.109 250.714 395.86 250.578 395.627 250.419C395.082 250.043 394.544 249.658 394.014 249.269C393.213 248.675 392.416 248.111 391.65 247.556C391.555 247.467 391.407 247.479 391.322 247.572C391.238 247.671 391.246 247.817 391.344 247.9C391.848 248.456 392.326 249.05 392.886 249.603C393.438 250.143 394.044 250.644 394.699 251.072C395.041 251.29 395.378 251.547 395.775 251.647C396.088 251.725 396.329 251.679 396.656 251.667C396.701 251.692 396.756 251.665 396.776 251.625C396.796 251.578 396.776 251.52 396.729 251.502" fill="#ffffff" fill-rule="evenodd" opacity="1" stroke="none" vectornator:layerName="path"/>
<path d="M397.862 248.637C397.526 248.403 397.223 248.155 396.878 247.936C396.375 247.612 395.86 247.325 395.337 247.041C394.991 246.857 394.64 246.677 394.282 246.519C393.741 246.271 393.19 246.067 392.649 245.82C392.514 245.743 392.342 245.79 392.265 245.925C392.187 246.059 392.234 246.228 392.367 246.309C392.861 246.66 393.34 247.019 393.862 247.324C394.208 247.525 394.565 247.707 394.931 247.868C395.477 248.117 396.033 248.335 396.608 248.516C397 248.638 397.386 248.705 397.785 248.806C397.832 248.825 397.886 248.804 397.907 248.759C397.928 248.712 397.908 248.66 397.862 248.637" fill="#ffffff" fill-rule="evenodd" opacity="1" stroke="none" vectornator:layerName="path"/>
</g>
</g>
<g opacity="1" vectornator:layerName="path">
<clipPath clip-rule="nonzero" id="ClipPath_9">
<path d="M38.1977 21.0568L461.802 21.0568L461.802 444.661L38.1977 444.661L38.1977 21.0568Z"/>
</clipPath>
<g clip-path="url(#ClipPath_9)">
<path d="M223.477 250.564C223.477 250.564 224.524 260.004 234.181 275.407L274.028 274.878L273.697 258.006L223.477 250.564Z" fill="#8bda90" fill-rule="evenodd" opacity="1" stroke="none" vectornator:layerName="path"/>
</g>
</g>
<g opacity="1" vectornator:layerName="path">
<use fill="#313469" fill-rule="nonzero" opacity="1" stroke="none" vectornator:layerName="path" xlink:href="#Fill"/>
<clipPath clip-rule="nonzero" id="ClipPath_10">
<use xlink:href="#Fill"/>
</clipPath>
<g clip-path="url(#ClipPath_10)">
<path d="M211.289 242.175C211.289 242.175 212.895 251.616 227.694 267.018L288.762 266.489L288.257 249.617L211.289 242.175Z" fill="#313469" fill-rule="evenodd" opacity="1" stroke="none" vectornator:layerName="path"/>
</g>
</g>
<g opacity="1" vectornator:layerName="path">
<clipPath clip-rule="nonzero" id="ClipPath_11">
<path d="M38.1977 21.0568L461.802 21.0568L461.802 444.661L38.1977 444.661L38.1977 21.0568Z"/>
</clipPath>
<g clip-path="url(#ClipPath_11)">
<path d="M237.281 135.629L237.281 156.797C237.281 156.797 229.834 174.039 223.478 182.471L265.528 182.664L265.329 179.835C265.329 179.835 273.221 170.488 270.665 163.124C268.104 155.76 261.574 141.921 261.574 141.921L258.684 140.734C258.684 140.734 264.659 155.4 264.931 157.69C265.203 159.98 244.476 158.845 242.664 157.055C240.852 155.263 239.983 135.455 239.983 135.455L237.281 135.629Z" fill="#313469" fill-rule="evenodd" opacity="1" stroke="none" vectornator:layerName="path"/>
</g>
</g>
<g opacity="1" vectornator:layerName="path">
<clipPath clip-rule="nonzero" id="ClipPath_12">
<path d="M237.281 135.628L237.281 156.796C237.281 156.796 229.835 174.039 223.477 182.471L265.528 182.665L265.329 179.835C265.329 179.835 273.22 170.488 270.665 163.124C268.104 155.76 261.574 141.921 261.574 141.921L258.684 140.734C258.684 140.734 264.659 155.4 264.931 157.69C265.203 159.98 244.476 158.846 242.664 157.055C240.853 155.263 239.983 135.454 239.983 135.454L237.281 135.628Z"/>
</clipPath>
<g clip-path="url(#ClipPath_12)">
<path d="M233.903 169.457C233.479 169.967 233.548 169.37 233.453 170.018C233.432 170.156 233.558 170.273 233.615 170.396C234.684 172.521 236.16 174.057 237.941 174.944C239.842 175.895 242.115 176.034 244.765 175.607C244.989 175.591 245.163 175.395 245.147 175.168C245.131 174.943 244.932 174.772 244.706 174.788C242.34 174.751 240.496 174.145 238.868 173.211C237.407 172.373 236.181 171.193 235.003 169.557C234.929 169.455 234.888 169.309 234.768 169.262C234.165 169.017 234.715 169.28 234.06 169.369C234.04 169.324 233.982 169.308 233.935 169.333C233.893 169.357 233.877 169.413 233.903 169.457" fill="#000000" fill-rule="evenodd" opacity="1" stroke="none" vectornator:layerName="path"/>
<path d="M226.467 183.239C226.504 183.22 226.582 183.215 226.724 183.233C226.724 183.284 226.766 183.326 226.818 183.325C226.865 183.325 226.907 183.284 226.907 183.233C227.048 183.214 227.127 183.22 227.169 183.237L227.211 183.19C227.3 183.099 227.247 182.941 227.258 182.813C227.352 181.56 227.368 180.301 227.379 179.04C227.389 176.758 227.363 174.473 227.279 172.195C227.242 171.21 227.148 170.239 227.091 169.258C227.096 169.155 227.012 169.07 226.912 169.068C226.808 169.065 226.724 169.147 226.719 169.25C226.619 170.229 226.498 171.199 226.436 172.184C226.289 174.463 226.242 176.753 226.253 179.039C226.258 180.3 226.273 181.562 226.373 182.816C226.383 182.942 226.331 183.101 226.426 183.193L226.467 183.239Z" fill="#ffffff" fill-rule="evenodd" opacity="1" stroke="none" vectornator:layerName="path"/>
<path d="M230.803 183.849C230.897 183.724 230.971 183.714 231.023 183.565C231.296 182.788 231.075 181.922 231.075 181.098C231.075 178.966 231.013 176.836 230.913 174.707C230.835 173.183 230.725 171.66 230.552 170.141C230.384 168.622 230.132 167.118 229.855 165.606C229.845 165.489 229.735 165.406 229.62 165.42C229.505 165.435 229.416 165.542 229.431 165.658C229.572 167.606 229.583 169.542 229.656 171.483C229.761 174.399 229.824 177.314 230.023 180.226C230.097 181.324 230.186 182.417 230.359 183.505C230.369 183.58 230.363 183.661 230.405 183.723C230.489 183.843 230.494 183.78 230.62 183.859C230.62 183.909 230.662 183.948 230.714 183.945C230.767 183.942 230.803 183.9 230.803 183.849" fill="#ffffff" fill-rule="evenodd" opacity="1" stroke="none" vectornator:layerName="path"/>
</g>
</g>
<g opacity="1" vectornator:layerName="path">
<clipPath clip-rule="nonzero" id="ClipPath_13">
<path d="M38.1977 21.0568L461.802 21.0568L461.802 444.661L38.1977 444.661L38.1977 21.0568Z"/>
</clipPath>
<g clip-path="url(#ClipPath_13)">
<path d="M267.214 197.29L220.916 188.362C220.916 188.362 205.097 201.275 199.765 213.602C194.439 225.93 193.675 248.067 228.075 254.27L273.64 261.658L288.758 224.765L266.911 215.192L267.214 197.29Z" fill="#313469" fill-rule="evenodd" opacity="1" stroke="none" vectornator:layerName="path"/>
</g>
</g>
<g opacity="1" vectornator:layerName="path">
<clipPath clip-rule="nonzero" id="ClipPath_14">
<path d="M199.765 213.602C194.439 225.931 193.675 248.067 228.075 254.271L273.64 261.658L288.758 224.764L266.91 215.193L267.214 197.29L220.916 188.362C220.916 188.362 205.096 201.275 199.765 213.602"/>
</clipPath>
<g clip-path="url(#ClipPath_14)">
<path d="M271.173 216.863L239.984 203.661L271.173 210.608L271.173 216.863Z" fill="#000000" fill-rule="evenodd" opacity="1" stroke="none" vectornator:layerName="path"/>
<path d="M252.907 208.252C252.996 208.212 252.991 208.267 253.054 208.188C253.08 208.155 253.069 208.106 253.075 208.064C253.179 207.445 253.305 206.828 253.426 206.211C253.971 203.456 254.693 200.724 255.18 197.958C255.589 195.629 255.798 193.281 255.719 190.906C255.719 190.83 255.656 190.768 255.584 190.768C255.505 190.768 255.442 190.83 255.442 190.906C255.396 192.078 255.258 193.231 255.085 194.38C254.861 195.854 254.547 197.312 254.227 198.772C253.75 200.971 253.227 203.168 252.819 205.38C252.667 206.217 252.54 207.057 252.435 207.899C252.426 207.965 252.389 208.036 252.41 208.097C252.446 208.19 252.457 208.135 252.536 208.2C252.52 208.302 252.593 208.398 252.693 208.413C252.797 208.428 252.891 208.356 252.907 208.252" fill="#000000" fill-rule="evenodd" opacity="1" stroke="none" vectornator:layerName="path"/>
<path d="M254.709 208.029C254.793 207.925 254.871 207.876 254.924 207.756C255.023 207.541 255.023 207.292 255.065 207.059C255.636 204.065 256.239 201.082 256.756 198.082C257.333 194.746 257.772 191.39 258.191 188.023C258.201 187.947 258.15 187.876 258.076 187.865C257.997 187.854 257.93 187.907 257.913 187.983C257.421 190.785 256.841 193.563 256.306 196.353C255.95 198.215 255.615 200.079 255.301 201.948C254.991 203.75 254.714 205.556 254.458 207.369C254.442 207.489 254.389 207.61 254.405 207.731C254.426 207.849 254.479 207.891 254.531 207.999C254.52 208.048 254.557 208.096 254.604 208.104C254.657 208.113 254.703 208.079 254.709 208.029" fill="#000000" fill-rule="evenodd" opacity="1" stroke="none" vectornator:layerName="path"/>
<path d="M282.542 245.666C282.903 245.506 282.38 245.924 282.584 245.463C282.615 245.471 282.641 245.454 282.646 245.428C282.657 245.401 282.636 245.373 282.61 245.366C282.626 245.257 282.646 245.19 282.673 245.154L282.646 245.118C282.599 245.041 282.474 245.068 282.385 245.043C281.521 244.794 280.652 244.542 279.782 244.29C276.315 243.283 272.854 242.24 269.398 241.194C264.193 239.62 259.008 238.022 253.865 236.39C247.419 234.344 241.036 232.269 234.783 230.181C230.808 228.872 226.493 226.732 223.644 223.431C221.843 221.345 220.639 218.789 220.523 215.675C220.393 212.396 221.104 209.411 222.194 206.561C223.514 203.1 225.441 199.861 227.091 196.518C228.787 193.068 230.186 189.526 230.651 185.711C230.678 185.532 230.557 185.362 230.379 185.334C230.196 185.305 230.028 185.428 230.002 185.608C229.285 189.277 227.572 192.558 225.781 195.841C223.975 199.164 222.079 202.486 220.712 205.99C219.529 209.031 218.78 212.229 218.905 215.736C219.041 219.248 220.393 222.135 222.424 224.484C225.467 227.994 230.054 230.286 234.296 231.666C243.686 234.669 253.331 237.693 263.113 240.494C268.9 242.152 274.734 243.727 280.573 245.214C281.16 245.364 281.741 245.509 282.327 245.655C282.38 245.667 282.432 245.717 282.485 245.693L282.542 245.666Z" fill="#ffffff" fill-rule="evenodd" opacity="1" stroke="none" vectornator:layerName="path"/>
<path d="M283.044 249.338C282.956 249.271 282.903 249.193 282.783 249.131C282.605 249.042 282.363 249.021 282.107 248.949C281.275 248.717 280.112 248.356 278.662 247.94C277.201 247.52 275.446 247.041 273.472 246.495C267.45 244.828 259.37 242.57 251.106 240.07C243.816 237.862 236.37 235.5 230.07 233.194C228.41 232.587 217.675 229.691 215.507 219.849C214.449 215.036 215.454 208.601 220.439 199.995C221.346 198.384 222.262 196.331 223.147 194.18C224.268 191.453 225.504 188.633 226.331 186.278C226.409 186.061 226.483 185.856 226.509 185.638C226.525 185.519 226.498 185.439 226.493 185.321C226.587 185.123 226.504 184.888 226.31 184.795C226.111 184.701 225.876 184.786 225.782 184.984C225.682 185.065 225.598 185.108 225.509 185.207C225.362 185.366 225.263 185.554 225.153 185.748C225.053 185.93 224.97 186.128 224.881 186.325C223.053 190.28 220.979 195.749 218.957 199.137C213.689 208.267 212.736 215.115 213.878 220.211C216.256 230.818 227.745 234.009 229.536 234.654C237.433 237.48 247.09 240.428 256.044 242.947C261.496 244.48 266.685 245.876 271.058 246.967C273.503 247.58 275.697 248.103 277.536 248.506C279.745 248.99 281.442 249.31 282.448 249.476C282.542 249.493 282.637 249.522 282.72 249.517C282.85 249.51 282.924 249.464 283.024 249.436C283.05 249.442 283.076 249.425 283.082 249.397C283.087 249.37 283.071 249.343 283.044 249.338" fill="#ffffff" fill-rule="evenodd" opacity="1" stroke="none" vectornator:layerName="path"/>
</g>
</g>
<g opacity="1" vectornator:layerName="path">
<clipPath clip-rule="nonzero" id="ClipPath_15">
<path d="M38.1977 21.0568L461.802 21.0568L461.802 444.661L38.1977 444.661L38.1977 21.0568Z"/>
</clipPath>
<g clip-path="url(#ClipPath_15)">
<path d="M245.016 95.7457C244.765 95.8736 236.616 94.3122 231.369 99.9572C227.656 103.948 225.933 109.803 223.131 114.427C222.021 116.263 220.628 117.812 218.927 119.113C218.361 119.544 215.842 121.031 215.842 121.031C215.842 121.031 216.591 123.496 217.722 124.879C218.769 126.162 220.288 128.409 220.288 128.409C220.288 128.409 220.953 127.787 221.597 127.558C221.953 127.433 222.304 127.253 222.608 127.032C223.131 126.649 223.53 126.133 223.964 125.653C223.974 125.641 224.399 125.118 224.446 125.134C224.65 125.199 223.692 127.047 223.524 127.285C222.466 128.813 221.131 129.908 221.131 129.908L226.169 134.289C226.169 134.289 228.054 132.021 228.651 131.163C228.866 130.858 229.08 130.549 229.274 130.232C229.358 130.102 229.441 129.697 229.504 129.836C230.442 131.999 227.719 135.329 227.719 135.329C227.719 135.329 229.719 136.377 230.19 136.552C230.903 136.812 231.588 137.12 232.296 137.395C233.207 137.752 235.087 138.432 235.087 138.432C235.087 138.432 236.103 137.394 236.218 137.156C236.915 135.695 237.381 134.113 237.752 132.544C237.852 132.119 237.935 131.688 238.008 131.257C238.051 130.996 237.941 130.271 238.113 130.469C238.276 130.649 238.25 131.394 238.255 131.616C238.276 132.942 238.056 134.346 237.736 135.631C237.527 136.479 236.757 138.494 236.757 138.494L244.151 137.843C244.151 137.843 244.445 134.67 244.413 133.568C244.34 131.072 244.377 128.511 244.099 126.029C243.78 123.122 242.759 113.124 242.895 113.398C243.901 115.414 244.283 119.262 244.283 119.262C244.283 119.262 248.257 118.677 252.499 112.537C253.106 111.658 253.583 110.715 254.022 109.743C254.18 109.403 254.316 109.056 254.452 108.707C254.51 108.56 254.583 108.111 254.625 108.264C255.044 109.931 252.101 116.131 252.221 116.07C255.326 114.538 257.306 112.503 257.961 111.001C258.191 110.48 258.385 109.952 258.536 109.404C258.61 109.149 258.652 108.389 258.736 108.639C259.071 109.596 258.118 112.926 258.118 112.926C258.118 112.926 259.757 111.683 259.815 111.632C260.495 111.03 260.951 110.165 261.25 109.316C262.266 106.396 262.695 103.46 261.841 100.424C260.512 95.6644 254.51 90.8717 245.016 95.7457" fill="#000000" fill-rule="evenodd" opacity="1" stroke="none" vectornator:layerName="path"/>
<path d="M254.713 112.654C254.593 112.754 254.556 112.718 254.478 112.852C254.442 112.913 254.447 112.986 254.436 113.055C254.3 114.295 254.425 115.513 254.547 116.704C254.766 118.892 255.163 121.023 255.667 123.183C255.876 124.084 256.143 124.973 256.368 125.896C256.39 126.016 256.499 126.096 256.62 126.076C256.741 126.056 256.819 125.944 256.798 125.825C256.672 124.602 256.552 123.409 256.363 122.234C255.913 119.483 255.379 116.829 255.217 113.979C255.195 113.631 255.29 113.254 255.148 112.926C255.08 112.769 255.013 112.784 254.891 112.658C254.897 112.608 254.855 112.566 254.802 112.564C254.756 112.564 254.713 112.603 254.713 112.654" fill="#000000" fill-rule="evenodd" opacity="1" stroke="none" vectornator:layerName="path"/>
</g>
</g>
</g>
</g>
</svg>
